<?xml version="1.0" standalone="no"?>
<!DOCTYPE svg PUBLIC "-//W3C//DTD SVG 20010904//EN"
 "http://www.w3.org/TR/2001/REC-SVG-20010904/DTD/svg10.dtd">
<svg version="1.0" xmlns="http://www.w3.org/2000/svg"
 width="300.000000pt" height="300.000000pt" viewBox="0 0 300.000000 300.000000"
 preserveAspectRatio="xMidYMid meet">
<metadata>
Created by potrace 1.10, written by Peter Selinger 2001-2011
</metadata>
<g transform="translate(0.000000,300.000000) scale(0.100000,-0.100000)"
fill="#000000" stroke="none">
<path d="M1953 2109 c-166 -12 -353 -69 -429 -128 l-25 -19 -50 34 c-100 67
-316 118 -474 112 l-80 -3 -3 -450 c-3 -515 -10 -475 92 -475 139 -1 341 -64
451 -141 31 -21 60 -39 65 -39 6 0 31 15 57 34 112 79 271 132 428 143 50 3
98 10 108 15 16 8 17 40 17 458 0 434 -1 450 -19 460 -11 5 -23 9 -28 9 -4 -1
-54 -5 -110 -10z m-983 -39 c0 -9 -31 -30 -45 -30 -3 0 -1 9 5 20 11 20 40 28
40 10z m185 -51 c87 -14 205 -55 258 -89 l47 -29 2 -393 c2 -216 2 -395 1
-397 -2 -2 -11 3 -21 12 -53 48 -238 108 -394 128 l-88 12 1 389 0 390 67 -6
c37 -4 94 -12 127 -17z m880 -368 l0 -390 -60 -6 c-143 -16 -295 -60 -389
-114 l-51 -28 3 391 2 391 23 19 c69 59 277 118 442 125 l30 1 0 -389z m-505
279 c0 -4 -7 -13 -15 -20 -12 -10 -18 -10 -30 0 -23 19 -18 29 15 28 17 -1 30
-4 30 -8z m1 -826 l24 -26 -24 -19 c-13 -10 -27 -19 -31 -19 -4 0 -18 9 -31
19 l-24 19 24 26 c14 14 27 26 31 26 4 0 17 -12 31 -26z"/>
<path d="M772 1978 c-16 -16 -17 -919 -1 -935 7 -7 50 -9 130 -6 202 10 437
-36 474 -93 47 -72 197 -71 255 3 44 57 272 100 475 90 105 -5 124 -3 129 9 3
9 6 219 6 468 0 338 -3 455 -12 464 -7 7 -25 12 -40 12 l-29 0 3 -438 3 -438
-125 0 c-215 -1 -406 -47 -466 -112 -28 -31 -40 -37 -74 -37 -34 0 -46 6 -74
37 -60 66 -249 111 -469 112 l-128 1 3 437 3 438 -25 0 c-15 0 -31 -5 -38 -12z"/>
</g>
</svg>
